%
M48
M72
T01C0.01181
T02C0.01969
T03C0.03937
T04C0.04000
T05C0.12205
%
T01
X10233Y11600
X14233Y5600
X20233Y5600
X26233Y5600
X32233Y5600
X38233Y5600
X44233Y5600
X50233Y5600
X56233Y5600
X62233Y5600
X68233Y5600
X106233Y5600
X112233Y5600
X112233Y11600
X112233Y17600
X112233Y23600
X112233Y29600
X112233Y35600
X112233Y41600
X112233Y47600
X119233Y51600
X124233Y79600
X128233Y83600
X131233Y86600
X140233Y86600
X145233Y91600
X147733Y88100
X150233Y96600
X150233Y103600
X150233Y109600
X150233Y115600
X150233Y121600
X150233Y127600
X150233Y133600
X150233Y139600
X150233Y145600
X150233Y151600
X150233Y157600
X146233Y162600
X144233Y167600
X148233Y169600
X144233Y173600
X144233Y179600
X144233Y185600
X144233Y191600
X148233Y195600
X144233Y197600
X144233Y203600
X144233Y209600
X144233Y215600
X144233Y221600
X143233Y227600
X138233Y232600
X138733Y238500
X135733Y238500
X131233Y234600
X125233Y234600
X125233Y238500
X122233Y238500
X119233Y234600
X119233Y242600
X116233Y246600
X113233Y242600
X107233Y242600
X101233Y242600
X95233Y242600
X94733Y250100
X97833Y253000
X90233Y250600
X84233Y250600
X78233Y250600
X72233Y250600
X66233Y250600
X62233Y246600
X50233Y245600
X47233Y249600
X49233Y253600
X49233Y257600
X44233Y245600
X44233Y237600
X38233Y237600
X34233Y241600
X28233Y241600
X22233Y241600
X16233Y241600
X10233Y241600
X10233Y235600
X10233Y229600
X10233Y223600
X10233Y217600
X10233Y211600
X16233Y211600
X22233Y211600
X28233Y211600
X34233Y211600
X40233Y211600
X46233Y211600
X52233Y211600
X58233Y211600
X64233Y211600
X78233Y211600
X82233Y211600
X88233Y211600
X94233Y211600
X100233Y211600
X106233Y211600
X112233Y211600
X118233Y211600
X124233Y211600
X130233Y211600
X155233Y208600
X156658Y216600
X159808Y216600
X161133Y224900
X156233Y228000
X163633Y231600
X158433Y236600
X164033Y240700
X173033Y238500
X173733Y245200
X175833Y248000
X174333Y259000
X170133Y259000
X179233Y258900
X195333Y255700
X198233Y259000
X201333Y256800
X204233Y259000
X207233Y256800
X204733Y264100
X205833Y278000
X200933Y282600
X204233Y285600
X207133Y289200
X211333Y289200
X199033Y292500
X193333Y289300
X187033Y287200
X184233Y283700
X178833Y286300
X175933Y278600
X168333Y278200
X165933Y272600
X161933Y277900
X158733Y277900
X155533Y277900
X152333Y277900
X149133Y278000
X139333Y277000
X139333Y273000
X139333Y266800
X139333Y263600
X146533Y258800
X152333Y258800
X158333Y258800
X158333Y253400
X158333Y262900
X146533Y241600
X131233Y242600
X128333Y246600
X128333Y250000
X128333Y253600
X128333Y257400
X128333Y263600
X128333Y269500
X128333Y278500
X135633Y291900
X147033Y306800
X157833Y316400
X162433Y331500
X160433Y339500
X168733Y341600
X170233Y345200
X179633Y342800
X188533Y345600
X190133Y342300
X189333Y336400
X199233Y343200
X208233Y336000
X211233Y338600
X211233Y344600
X208233Y350600
X208233Y356600
X203233Y354600
X206233Y363600
X210233Y363600
X206233Y369600
X206233Y375600
X202233Y375600
X194233Y375600
X186233Y375600
X178233Y375600
X170233Y375600
X162233Y375600
X154233Y375600
X154233Y367600
X157833Y360000
X155033Y353600
X151733Y353600
X152433Y350000
X149933Y358100
X134233Y354500
X131833Y363200
X130233Y375600
X140233Y375600
X119233Y359600
X115833Y363200
X109433Y366400
X108233Y375600
X118233Y375600
X102233Y359600
X96233Y359600
X90233Y359600
X98233Y366400
X98233Y375600
X88233Y375600
X80233Y375600
X68233Y373600
X68233Y363600
X72933Y361600
X80233Y356600
X80233Y343600
X69233Y340800
X68633Y331200
X59233Y327600
X50233Y327600
X49233Y311600
X56233Y307600
X41233Y298600
X46233Y291600
X46233Y287600
X46233Y283600
X55233Y283600
X54233Y270100
X29233Y247600
X21233Y247600
X16233Y249600
X10233Y247600
X10233Y252600
X10233Y289600
X10233Y297600
X10233Y305600
X10233Y313600
X21233Y297600
X21233Y289600
X37133Y313900
X30233Y320500
X26233Y328600
X23233Y332600
X23233Y338600
X20233Y349600
X12233Y349600
X28233Y349600
X36233Y343600
X44233Y343600
X54233Y349600
X62233Y357600
X91233Y332600
X96133Y324600
X91233Y321000
X88833Y311800
X94433Y305600
X103033Y309400
X110633Y322600
X117233Y332600
X122233Y334100
X125233Y334100
X125233Y326600
X122233Y326600
X122233Y340600
X125233Y340600
X120033Y344000
X108033Y356900
X107433Y341500
X95233Y341600
X119933Y309300
X133633Y313700
X159033Y291200
X172533Y291800
X186433Y294300
X186433Y308400
X179633Y308500
X199933Y309400
X205333Y303000
X215333Y306500
X215333Y313900
X215333Y317500
X211333Y328600
X211333Y332000
X225233Y342600
X225233Y346600
X225233Y351600
X231733Y368600
X228233Y371600
X226233Y375600
X234233Y375600
X242233Y375600
X247233Y371600
X244233Y368600
X250233Y375600
X258233Y375600
X266233Y375600
X274233Y375600
X282233Y375600
X290233Y375600
X298233Y375600
X316233Y368600
X321933Y368700
X318233Y375600
X317933Y359700
X321933Y351700
X325933Y347700
X331933Y345700
X339933Y345700
X344133Y339300
X347933Y337700
X350233Y333600
X347933Y329700
X347933Y321700
X357933Y321700
X357933Y313700
X357933Y302700
X355533Y298000
X347933Y302700
X332533Y298000
X328233Y300600
X328233Y303600
X324433Y298300
X318433Y298300
X310233Y300600
X310233Y304600
X308833Y309900
X315333Y307300
X318433Y312600
X318433Y316300
X324133Y319000
X326633Y324800
X327633Y334600
X338533Y336600
X347933Y345700
X357933Y337700
X357933Y329700
X349133Y369300
X317133Y330600
X309133Y333300
X308133Y324600
X300833Y320200
X295233Y317200
X292233Y320200
X290733Y323800
X287233Y329600
X287233Y332600
X289933Y338700
X291933Y340700
X295233Y344300
X298433Y344300
X302233Y339600
X303933Y347000
X308533Y347000
X311833Y352300
X291033Y347700
X284233Y344200
X278433Y333200
X277433Y325300
X269233Y330600
X269233Y339600
X262233Y323600
X258233Y323600
X254233Y323600
X262233Y319600
X262233Y316100
X254233Y313100
X252933Y302600
X248833Y302600
X251833Y297800
X251833Y294400
X257033Y297800
X265033Y293100
X272833Y298400
X276733Y291800
X283233Y296300
X282333Y303500
X280633Y308800
X277433Y308800
X274233Y308800
X292233Y303700
X312133Y282500
X312133Y270800
X310233Y263600
X310233Y256100
X293233Y245100
X293233Y240100
X287933Y241100
X280633Y236900
X277033Y229700
X271533Y229600
X265033Y229500
X261133Y229500
X261233Y233700
X256233Y229500
X250433Y229500
X253233Y240400
X259233Y248600
X259233Y253600
X259233Y258600
X265233Y258600
X271233Y258600
X271233Y253600
X271233Y248600
X265233Y248600
X275733Y256000
X280633Y249700
X290533Y256000
X288333Y263200
X280633Y267600
X283333Y272000
X285933Y275200
X292033Y278000
X268233Y277600
X264233Y274000
X260233Y277600
X255733Y274000
X245333Y272600
X245333Y260500
X226733Y266800
X223633Y268700
X220333Y270600
X223633Y276100
X225933Y278700
X229933Y278700
X231533Y291500
X228233Y291500
X234733Y301100
X230033Y311800
X266233Y359700
X273233Y360600
X332833Y290000
X328233Y285600
X330633Y280000
X338533Y285200
X346933Y282700
X342233Y273400
X346933Y269700
X345233Y264600
X346933Y257700
X343933Y254700
X334133Y254900
X331233Y253900
X335833Y268100
X357933Y250700
X357933Y242700
X357933Y234700
X357933Y226700
X357933Y217700
X357933Y207700
X357933Y197700
X345933Y193100
X342633Y191100
X338733Y193700
X334033Y193700
X331133Y197100
X326233Y188500
X306233Y172600
X303333Y180100
X296233Y176487
X293233Y180100
X287233Y176000
X284233Y178000
X284233Y185300
X280733Y185300
X275733Y182900
X272233Y172600
X258233Y175300
X251633Y183000
X247633Y183000
X243633Y183000
X239633Y183100
X235633Y183100
X231033Y183100
X228233Y180300
X220133Y185900
X212833Y183100
X207333Y177500
X204033Y177500
X206233Y170900
X219833Y164800
X226233Y149600
X223033Y146400
X229433Y142700
X231933Y137900
X234533Y140300
X237133Y142700
X224233Y132000
X234333Y115600
X242133Y115600
X254233Y111600
X254233Y103600
X256233Y95600
X264233Y100600
X264233Y104600
X269433Y99200
X276233Y109000
X277233Y117200
X284633Y117200
X291233Y110400
X289433Y104800
X299033Y98400
X306233Y92000
X320033Y98800
X336233Y88600
X346833Y93400
X350233Y91600
X357233Y97600
X357233Y105600
X357233Y77600
X357233Y62600
X357233Y48600
X357233Y34600
X357233Y13600
X340433Y51300
X319033Y75200
X319033Y78600
X311933Y73300
X314033Y61800
X299833Y64000
X287033Y74400
X275533Y64200
X260233Y71600
X257133Y68100
X260233Y79600
X260233Y87600
X248433Y79600
X237433Y79600
X247033Y68000
X242233Y61600
X242233Y55600
X234233Y63600
X228933Y63600
X228933Y51000
X218233Y55600
X207833Y47500
X202433Y55600
X205133Y59700
X202433Y62600
X197433Y63600
X200233Y67500
X190233Y55600
X183233Y46600
X177233Y49600
X172233Y53600
X176833Y59700
X176833Y67500
X180033Y67500
X183233Y67500
X173233Y67600
X169233Y70600
X173233Y74600
X183233Y85700
X187233Y85700
X190233Y89600
X193933Y95100
X185733Y79600
X214533Y66200
X217233Y72950
X217833Y80000
X227033Y79600
X255233Y55600
X223033Y27600
X162233Y56600
X150233Y64000
X158233Y98600
X170333Y115600
X178133Y115600
X162633Y132700
X169833Y140000
X162633Y143600
X172233Y153700
X175333Y153700
X178833Y153700
X172233Y159500
X168433Y159500
X185133Y147200
X207833Y147200
X240033Y156000
X240033Y160500
X242533Y164500
X245933Y164500
X241633Y172600
X244633Y175600
X256033Y158700
X251233Y152900
X254233Y143600
X254233Y135600
X254233Y127600
X254233Y119600
X269433Y120400
X270233Y138600
X264233Y138600
X262233Y147600
X270233Y147600
X278233Y147600
X286233Y147600
X294233Y147600
X302233Y147600
X306233Y152900
X302233Y156600
X310233Y156600
X318233Y156600
X326233Y156600
X326233Y147600
X318233Y147600
X310233Y147600
X310233Y138600
X302233Y138600
X294233Y138600
X286233Y138600
X278233Y138600
X286233Y158500
X287233Y187700
X297233Y203000
X291233Y206600
X280733Y205100
X274533Y210200
X270833Y214200
X279233Y215700
X294833Y223400
X293233Y233500
X305833Y231300
X310233Y235600
X325933Y219700
X325933Y215700
X319333Y218400
X310233Y213200
X341933Y221700
X341933Y234700
X345933Y185900
X356933Y181600
X342233Y156600
X334233Y156600
X334233Y147600
X342233Y147600
X350233Y147600
X350233Y138600
X356233Y138600
X341433Y137000
X326233Y138600
X318233Y138600
X330233Y115400
X303233Y110400
X221333Y113500
X167808Y184600
X164658Y184600
X167233Y195600
X169233Y198600
X168233Y203900
X164233Y203900
X160233Y198600
X172133Y206100
X180233Y199300
X183733Y195900
X189133Y203500
X194533Y212400
X191833Y216500
X191833Y219900
X191833Y223300
X191833Y226700
X201633Y227000
X204233Y223700
X207333Y223700
X210433Y223700
X218033Y217600
X215333Y214600
X218133Y209700
X215333Y207000
X210033Y198700
X202633Y200900
X199433Y200900
X173233Y230200
X191833Y242400
X209833Y246100
X213533Y243600
X213533Y250000
X218533Y250000
X218933Y243700
X226233Y248100
X226233Y255000
X226833Y235200
X226733Y225100
X230633Y217600
X240233Y222000
X244633Y206000
X245033Y197200
X232733Y206000
X213533Y235700
X209833Y238600
X185133Y276800
X125233Y242600
X112133Y262800
X104233Y262600
X98233Y269600
X94233Y286100
X94233Y290500
X89733Y290600
X89733Y286100
X82233Y260600
X50233Y237600
X78233Y201600
X78233Y195600
X78233Y189600
X78233Y183600
X78233Y177600
X78233Y171600
X78233Y165600
X78233Y159600
X78233Y153600
X78233Y147600
X78233Y141600
X78233Y135600
X78233Y129600
X78233Y123600
X78233Y117600
X78233Y111600
X78233Y105600
X78233Y99600
X78233Y93600
X78233Y87600
X72233Y87600
X66233Y87600
X60233Y87600
X10233Y87600
X10233Y93600
X10233Y99600
X10233Y105600
X10233Y111600
X10233Y117600
X10233Y124600
X10233Y130600
X10233Y135600
X10233Y141600
X10233Y147600
X42233Y153600
X42233Y156600
X42233Y159600
X42233Y162600
X116233Y162600
X116233Y159600
X116233Y156600
X116233Y153600
X10233Y47600
X10233Y41600
X10233Y35600
X10233Y29600
X10233Y23600
X10233Y17600
X270433Y264100
X172133Y365300
T02
X105233Y173600
X105233Y167600
X99233Y167600
X93233Y167600
X93233Y173600
X99233Y173600
X99233Y161600
X93233Y161600
X105233Y161600
X105233Y134600
X105233Y128600
X111233Y128600
X111233Y134600
X117233Y134600
X117233Y128600
X123233Y128600
X123233Y134600
X136233Y131600
X142233Y131600
X136233Y107100
X140233Y95100
X119233Y79600
X119233Y73600
X119233Y64600
X119233Y58600
X91233Y58600
X91233Y64600
X91233Y74600
X91233Y80600
X68233Y96100
X62233Y107100
X49233Y128600
X49233Y134600
X43233Y134600
X37233Y134600
X37233Y128600
X43233Y128600
X31233Y128600
X31233Y134600
X22233Y131600
X16233Y131600
X19233Y161600
X25233Y161600
X25233Y167600
X19233Y167600
X19233Y173600
X25233Y173600
X31233Y173600
X31233Y167600
X31233Y161600
X62233Y131600
X68233Y131600
X84233Y131600
X90233Y131600
X96233Y131600
X38233Y78600
X38233Y72600
X38233Y62600
X38233Y56600
X10233Y56600
X10233Y62600
X10233Y72600
X10233Y78600
T03
X48233Y42600
X48233Y32600
X48233Y22600
X48233Y12600
X64233Y12600
X64233Y22600
X64233Y32600
X64233Y42600
X122233Y42600
X122233Y32600
X122233Y22600
X122233Y12600
X134233Y12600
X134233Y22600
X134233Y32600
X134233Y42600
X146233Y42600
X146233Y32600
X146233Y22600
X146233Y12600
X158233Y12600
X158233Y22600
X158233Y32600
X158233Y42600
X170233Y42600
X170233Y32600
X170233Y22600
X170233Y12600
X190233Y12600
X190233Y22600
X190233Y32600
X190233Y42600
X202233Y42600
X202233Y32600
X202233Y22600
X202233Y12600
X218233Y12600
X218233Y22600
X218233Y32600
X218233Y42600
X230233Y42600
X230233Y32600
X230233Y22600
X230233Y12600
X244233Y12600
X244233Y22600
X244233Y32600
X244233Y42600
X256233Y42600
X256233Y32600
X256233Y22600
X256233Y12600
X272233Y12600
X272233Y22600
X272233Y32600
X272233Y42600
X284233Y42600
X284233Y32600
X284233Y22600
X284233Y12600
X308233Y12600
X308233Y22600
X308233Y32600
X308233Y42600
X320233Y42600
X320233Y32600
X320233Y22600
X320233Y12600
X34233Y254600
X34233Y264600
X34233Y274600
X34233Y284600
X14233Y327600
X14233Y338100
T04
X272233Y52600
X284233Y52600
X300233Y54600
X312233Y54600
T05
X341272Y21679
X26312Y21679
X41272Y359080
X331430Y359080
M30
