G75*
%MOIN*%
%OFA0B0*%
%FSLAX25Y25*%
%IPPOS*%
%LPD*%
%AMOC8*
5,1,8,0,0,1.08239X$1,22.5*
%
%ADD10C,0.04800*%
%ADD11R,0.12611X0.03753*%
%ADD12R,0.04343X0.03162*%
%ADD13R,0.03162X0.04343*%
%ADD14R,0.03556X0.05918*%
%ADD15R,0.07099X0.04343*%
%ADD16R,0.08300X0.14300*%
%ADD17R,0.05918X0.03556*%
%ADD18R,0.02769X0.03162*%
%ADD19R,0.04737X0.06312*%
%ADD20R,0.06312X0.04737*%
%ADD21R,0.03400X0.08800*%
%ADD22R,0.03162X0.09461*%
%ADD23C,0.05000*%
%ADD24C,0.06706*%
%ADD25R,0.03162X0.03162*%
%ADD26R,0.02375X0.02375*%
%ADD27R,0.02965X0.02965*%
%ADD28R,0.17335X0.22454*%
%ADD29R,0.04737X0.05131*%
%ADD30R,0.05131X0.04737*%
%ADD31R,0.03950X0.05524*%
%ADD32R,0.05524X0.03950*%
%ADD33R,0.04934X0.06312*%
%ADD34R,0.06312X0.04934*%
%ADD35R,0.07100X0.05400*%
%ADD36R,0.07200X0.00600*%
%ADD37C,0.03800*%
%ADD38R,0.06706X0.01942*%
%ADD39R,0.01942X0.06706*%
%ADD40R,0.09500X0.03200*%
%ADD41R,0.01981X0.02572*%
%ADD42R,0.02454X0.05918*%
%ADD43R,0.05131X0.03162*%
%ADD44R,0.01902X0.02769*%
%ADD45R,0.01824X0.04737*%
%ADD46R,0.04737X0.01824*%
%ADD47R,0.02454X0.07808*%
%ADD48R,0.05524X0.06312*%
%ADD49R,0.06312X0.05524*%
%ADD50C,0.17005*%
%ADD51R,0.12611X0.07099*%
%ADD52R,0.23300X0.19800*%
%ADD53R,0.07099X0.12611*%
%ADD54R,0.19800X0.23300*%
%ADD55R,0.05400X0.07100*%
%ADD56R,0.00600X0.07200*%
%ADD57OC8,0.06800*%
%ADD58R,0.09304X0.13202*%
%ADD59R,0.02375X0.05524*%
%ADD60OC8,0.06706*%
%ADD61R,0.06706X0.06706*%
%ADD62R,0.03162X0.03950*%
%ADD63R,0.07099X0.06312*%
%ADD64R,0.09600X0.05600*%
%ADD65R,0.09461X0.14973*%
%ADD66R,0.08674X0.05131*%
%ADD67R,0.03950X0.03950*%
%ADD68R,0.07493X0.02532*%
%ADD69R,0.09068X0.06607*%
%ADD70R,0.08280X0.10150*%
%ADD71R,0.08280X0.05426*%
%ADD72C,0.04000*%
D10*
X0025333Y0251100D03*
X0086233Y0257600D03*
X0106233Y0257600D03*
X0069733Y0335800D03*
X0069333Y0344600D03*
X0063233Y0352600D03*
X0083233Y0358600D03*
X0111233Y0360900D03*
X0017833Y0358300D03*
X0226233Y0363300D03*
X0269233Y0350600D03*
X0269233Y0334600D03*
X0269233Y0322600D03*
X0285233Y0322600D03*
X0283233Y0334600D03*
X0307133Y0317900D03*
X0320133Y0295100D03*
X0341133Y0292700D03*
X0354233Y0254600D03*
X0354233Y0246600D03*
X0354233Y0238600D03*
X0354233Y0230600D03*
X0354233Y0222600D03*
X0314233Y0218600D03*
D11*
X0321957Y0210553D03*
X0321957Y0204647D03*
D12*
X0302233Y0214647D03*
X0302233Y0220553D03*
X0305233Y0168553D03*
X0305233Y0162647D03*
X0306233Y0132553D03*
X0306233Y0126647D03*
X0350233Y0086553D03*
X0350233Y0080647D03*
X0221233Y0118647D03*
X0221233Y0124553D03*
X0158233Y0132647D03*
X0158233Y0138553D03*
X0181233Y0267647D03*
X0181233Y0273553D03*
X0135633Y0302747D03*
X0135633Y0308653D03*
X0128233Y0303553D03*
X0128233Y0297647D03*
X0102233Y0297647D03*
X0102233Y0303553D03*
X0100233Y0286553D03*
X0100233Y0280647D03*
X0040233Y0319647D03*
X0040233Y0325553D03*
X0094233Y0366647D03*
X0094233Y0372553D03*
X0114233Y0372553D03*
X0114233Y0366647D03*
X0136233Y0366647D03*
X0136233Y0372553D03*
X0180233Y0370553D03*
X0180233Y0364647D03*
X0191233Y0364647D03*
X0191233Y0370553D03*
X0348233Y0315553D03*
X0348233Y0309647D03*
D13*
X0322186Y0271600D03*
X0316280Y0271600D03*
X0316280Y0264600D03*
X0322186Y0264600D03*
X0324186Y0238600D03*
X0318280Y0238600D03*
X0302186Y0294600D03*
X0296280Y0294600D03*
X0246186Y0318600D03*
X0240280Y0318600D03*
X0221186Y0338600D03*
X0215280Y0338600D03*
X0215280Y0347600D03*
X0221186Y0347600D03*
X0234280Y0295600D03*
X0240186Y0295600D03*
X0236186Y0286600D03*
X0230280Y0286600D03*
X0223186Y0231600D03*
X0217280Y0231600D03*
X0217280Y0223600D03*
X0223186Y0223600D03*
X0264680Y0178600D03*
X0270586Y0178600D03*
X0318280Y0177600D03*
X0324186Y0177600D03*
X0348280Y0177600D03*
X0354186Y0177600D03*
X0354186Y0110600D03*
X0348280Y0110600D03*
X0299186Y0103600D03*
X0293280Y0103600D03*
X0277186Y0103600D03*
X0271280Y0103600D03*
X0098186Y0236600D03*
X0092280Y0236600D03*
X0074186Y0256600D03*
X0068280Y0256600D03*
X0094280Y0314600D03*
X0100186Y0314600D03*
X0101186Y0353600D03*
X0095280Y0353600D03*
X0140280Y0350600D03*
X0146186Y0350600D03*
D14*
X0213493Y0356600D03*
X0220973Y0356600D03*
X0226493Y0319600D03*
X0233973Y0319600D03*
X0349493Y0186600D03*
X0356973Y0186600D03*
X0353973Y0118600D03*
X0346493Y0118600D03*
X0307973Y0118600D03*
X0300493Y0118600D03*
X0125973Y0101600D03*
X0118493Y0101600D03*
X0118493Y0091600D03*
X0125973Y0091600D03*
X0095973Y0107600D03*
X0088493Y0107600D03*
X0051973Y0101600D03*
X0051973Y0091600D03*
X0044493Y0091600D03*
X0044493Y0101600D03*
X0021973Y0107600D03*
X0014493Y0107600D03*
X0054493Y0256600D03*
X0061973Y0256600D03*
X0050973Y0277600D03*
X0043493Y0277600D03*
D15*
X0038233Y0227309D03*
X0038233Y0215891D03*
X0026233Y0215891D03*
X0026233Y0227309D03*
X0050233Y0227309D03*
X0050233Y0215891D03*
X0062233Y0215891D03*
X0062233Y0227309D03*
X0092233Y0227309D03*
X0092233Y0215891D03*
X0104233Y0215891D03*
X0104233Y0227309D03*
X0116233Y0227309D03*
X0116233Y0215891D03*
X0128233Y0215891D03*
X0128233Y0227309D03*
X0158233Y0216600D03*
X0169233Y0210891D03*
X0169233Y0222309D03*
X0178233Y0191309D03*
X0178233Y0179891D03*
X0166233Y0184600D03*
D16*
X0112983Y0077600D03*
X0097483Y0077600D03*
X0097483Y0061600D03*
X0112983Y0061600D03*
X0031983Y0059600D03*
X0016483Y0059600D03*
X0016483Y0075600D03*
X0031983Y0075600D03*
D17*
X0020233Y0117860D03*
X0020233Y0125340D03*
X0020233Y0141860D03*
X0020233Y0149340D03*
X0060233Y0144140D03*
X0060233Y0136660D03*
X0060233Y0123340D03*
X0060233Y0115860D03*
X0094233Y0118860D03*
X0094233Y0126340D03*
X0094233Y0141860D03*
X0094233Y0149340D03*
X0134233Y0143340D03*
X0134233Y0135860D03*
X0134233Y0123340D03*
X0134233Y0115860D03*
X0081233Y0219860D03*
X0081233Y0227340D03*
X0015233Y0227340D03*
X0015233Y0219860D03*
X0310233Y0183340D03*
X0310233Y0175860D03*
D18*
X0257002Y0049500D03*
X0253065Y0049500D03*
X0245602Y0049500D03*
X0241665Y0049500D03*
X0219202Y0049600D03*
X0215265Y0049600D03*
X0203202Y0049600D03*
X0199265Y0049600D03*
X0173202Y0059600D03*
X0169265Y0059600D03*
X0161202Y0052600D03*
X0157265Y0052600D03*
D19*
X0292493Y0021431D03*
X0299973Y0021431D03*
X0296233Y0012769D03*
D20*
X0339902Y0039860D03*
X0339902Y0047340D03*
X0348564Y0043600D03*
D21*
X0341733Y0075500D03*
X0336733Y0075500D03*
X0331733Y0075500D03*
X0326733Y0075500D03*
X0326733Y0099700D03*
X0331733Y0099700D03*
X0336733Y0099700D03*
X0341733Y0099700D03*
D22*
X0343733Y0129490D03*
X0338733Y0129490D03*
X0333733Y0129490D03*
X0328733Y0129490D03*
X0323733Y0129490D03*
X0318733Y0129490D03*
X0295733Y0129490D03*
X0290733Y0129490D03*
X0285733Y0129490D03*
X0280733Y0129490D03*
X0275733Y0129490D03*
X0270733Y0129490D03*
X0265733Y0129490D03*
X0260733Y0129490D03*
X0260733Y0165710D03*
X0265733Y0165710D03*
X0270733Y0165710D03*
X0275733Y0165710D03*
X0280733Y0165710D03*
X0285733Y0165710D03*
X0290733Y0165710D03*
X0295733Y0165710D03*
X0318733Y0165710D03*
X0323733Y0165710D03*
X0328733Y0165710D03*
X0333733Y0165710D03*
X0338733Y0165710D03*
X0343733Y0165710D03*
X0348733Y0165710D03*
X0353733Y0165710D03*
X0353733Y0129490D03*
X0348733Y0129490D03*
D23*
X0349668Y0008600D02*
X0349670Y0008719D01*
X0349676Y0008838D01*
X0349686Y0008957D01*
X0349700Y0009075D01*
X0349718Y0009193D01*
X0349739Y0009310D01*
X0349765Y0009426D01*
X0349795Y0009542D01*
X0349828Y0009656D01*
X0349865Y0009769D01*
X0349906Y0009881D01*
X0349951Y0009992D01*
X0349999Y0010101D01*
X0350051Y0010208D01*
X0350107Y0010313D01*
X0350166Y0010417D01*
X0350228Y0010518D01*
X0350294Y0010618D01*
X0350363Y0010715D01*
X0350435Y0010809D01*
X0350511Y0010902D01*
X0350589Y0010991D01*
X0350670Y0011078D01*
X0350755Y0011163D01*
X0350842Y0011244D01*
X0350931Y0011322D01*
X0351024Y0011398D01*
X0351118Y0011470D01*
X0351215Y0011539D01*
X0351315Y0011605D01*
X0351416Y0011667D01*
X0351520Y0011726D01*
X0351625Y0011782D01*
X0351732Y0011834D01*
X0351841Y0011882D01*
X0351952Y0011927D01*
X0352064Y0011968D01*
X0352177Y0012005D01*
X0352291Y0012038D01*
X0352407Y0012068D01*
X0352523Y0012094D01*
X0352640Y0012115D01*
X0352758Y0012133D01*
X0352876Y0012147D01*
X0352995Y0012157D01*
X0353114Y0012163D01*
X0353233Y0012165D01*
X0353352Y0012163D01*
X0353471Y0012157D01*
X0353590Y0012147D01*
X0353708Y0012133D01*
X0353826Y0012115D01*
X0353943Y0012094D01*
X0354059Y0012068D01*
X0354175Y0012038D01*
X0354289Y0012005D01*
X0354402Y0011968D01*
X0354514Y0011927D01*
X0354625Y0011882D01*
X0354734Y0011834D01*
X0354841Y0011782D01*
X0354946Y0011726D01*
X0355050Y0011667D01*
X0355151Y0011605D01*
X0355251Y0011539D01*
X0355348Y0011470D01*
X0355442Y0011398D01*
X0355535Y0011322D01*
X0355624Y0011244D01*
X0355711Y0011163D01*
X0355796Y0011078D01*
X0355877Y0010991D01*
X0355955Y0010902D01*
X0356031Y0010809D01*
X0356103Y0010715D01*
X0356172Y0010618D01*
X0356238Y0010518D01*
X0356300Y0010417D01*
X0356359Y0010313D01*
X0356415Y0010208D01*
X0356467Y0010101D01*
X0356515Y0009992D01*
X0356560Y0009881D01*
X0356601Y0009769D01*
X0356638Y0009656D01*
X0356671Y0009542D01*
X0356701Y0009426D01*
X0356727Y0009310D01*
X0356748Y0009193D01*
X0356766Y0009075D01*
X0356780Y0008957D01*
X0356790Y0008838D01*
X0356796Y0008719D01*
X0356798Y0008600D01*
X0356796Y0008481D01*
X0356790Y0008362D01*
X0356780Y0008243D01*
X0356766Y0008125D01*
X0356748Y0008007D01*
X0356727Y0007890D01*
X0356701Y0007774D01*
X0356671Y0007658D01*
X0356638Y0007544D01*
X0356601Y0007431D01*
X0356560Y0007319D01*
X0356515Y0007208D01*
X0356467Y0007099D01*
X0356415Y0006992D01*
X0356359Y0006887D01*
X0356300Y0006783D01*
X0356238Y0006682D01*
X0356172Y0006582D01*
X0356103Y0006485D01*
X0356031Y0006391D01*
X0355955Y0006298D01*
X0355877Y0006209D01*
X0355796Y0006122D01*
X0355711Y0006037D01*
X0355624Y0005956D01*
X0355535Y0005878D01*
X0355442Y0005802D01*
X0355348Y0005730D01*
X0355251Y0005661D01*
X0355151Y0005595D01*
X0355050Y0005533D01*
X0354946Y0005474D01*
X0354841Y0005418D01*
X0354734Y0005366D01*
X0354625Y0005318D01*
X0354514Y0005273D01*
X0354402Y0005232D01*
X0354289Y0005195D01*
X0354175Y0005162D01*
X0354059Y0005132D01*
X0353943Y0005106D01*
X0353826Y0005085D01*
X0353708Y0005067D01*
X0353590Y0005053D01*
X0353471Y0005043D01*
X0353352Y0005037D01*
X0353233Y0005035D01*
X0353114Y0005037D01*
X0352995Y0005043D01*
X0352876Y0005053D01*
X0352758Y0005067D01*
X0352640Y0005085D01*
X0352523Y0005106D01*
X0352407Y0005132D01*
X0352291Y0005162D01*
X0352177Y0005195D01*
X0352064Y0005232D01*
X0351952Y0005273D01*
X0351841Y0005318D01*
X0351732Y0005366D01*
X0351625Y0005418D01*
X0351520Y0005474D01*
X0351416Y0005533D01*
X0351315Y0005595D01*
X0351215Y0005661D01*
X0351118Y0005730D01*
X0351024Y0005802D01*
X0350931Y0005878D01*
X0350842Y0005956D01*
X0350755Y0006037D01*
X0350670Y0006122D01*
X0350589Y0006209D01*
X0350511Y0006298D01*
X0350435Y0006391D01*
X0350363Y0006485D01*
X0350294Y0006582D01*
X0350228Y0006682D01*
X0350166Y0006783D01*
X0350107Y0006887D01*
X0350051Y0006992D01*
X0349999Y0007099D01*
X0349951Y0007208D01*
X0349906Y0007319D01*
X0349865Y0007431D01*
X0349828Y0007544D01*
X0349795Y0007658D01*
X0349765Y0007774D01*
X0349739Y0007890D01*
X0349718Y0008007D01*
X0349700Y0008125D01*
X0349686Y0008243D01*
X0349676Y0008362D01*
X0349670Y0008481D01*
X0349668Y0008600D01*
X0009668Y0372600D02*
X0009670Y0372719D01*
X0009676Y0372838D01*
X0009686Y0372957D01*
X0009700Y0373075D01*
X0009718Y0373193D01*
X0009739Y0373310D01*
X0009765Y0373426D01*
X0009795Y0373542D01*
X0009828Y0373656D01*
X0009865Y0373769D01*
X0009906Y0373881D01*
X0009951Y0373992D01*
X0009999Y0374101D01*
X0010051Y0374208D01*
X0010107Y0374313D01*
X0010166Y0374417D01*
X0010228Y0374518D01*
X0010294Y0374618D01*
X0010363Y0374715D01*
X0010435Y0374809D01*
X0010511Y0374902D01*
X0010589Y0374991D01*
X0010670Y0375078D01*
X0010755Y0375163D01*
X0010842Y0375244D01*
X0010931Y0375322D01*
X0011024Y0375398D01*
X0011118Y0375470D01*
X0011215Y0375539D01*
X0011315Y0375605D01*
X0011416Y0375667D01*
X0011520Y0375726D01*
X0011625Y0375782D01*
X0011732Y0375834D01*
X0011841Y0375882D01*
X0011952Y0375927D01*
X0012064Y0375968D01*
X0012177Y0376005D01*
X0012291Y0376038D01*
X0012407Y0376068D01*
X0012523Y0376094D01*
X0012640Y0376115D01*
X0012758Y0376133D01*
X0012876Y0376147D01*
X0012995Y0376157D01*
X0013114Y0376163D01*
X0013233Y0376165D01*
X0013352Y0376163D01*
X0013471Y0376157D01*
X0013590Y0376147D01*
X0013708Y0376133D01*
X0013826Y0376115D01*
X0013943Y0376094D01*
X0014059Y0376068D01*
X0014175Y0376038D01*
X0014289Y0376005D01*
X0014402Y0375968D01*
X0014514Y0375927D01*
X0014625Y0375882D01*
X0014734Y0375834D01*
X0014841Y0375782D01*
X0014946Y0375726D01*
X0015050Y0375667D01*
X0015151Y0375605D01*
X0015251Y0375539D01*
X0015348Y0375470D01*
X0015442Y0375398D01*
X0015535Y0375322D01*
X0015624Y0375244D01*
X0015711Y0375163D01*
X0015796Y0375078D01*
X0015877Y0374991D01*
X0015955Y0374902D01*
X0016031Y0374809D01*
X0016103Y0374715D01*
X0016172Y0374618D01*
X0016238Y0374518D01*
X0016300Y0374417D01*
X0016359Y0374313D01*
X0016415Y0374208D01*
X0016467Y0374101D01*
X0016515Y0373992D01*
X0016560Y0373881D01*
X0016601Y0373769D01*
X0016638Y0373656D01*
X0016671Y0373542D01*
X0016701Y0373426D01*
X0016727Y0373310D01*
X0016748Y0373193D01*
X0016766Y0373075D01*
X0016780Y0372957D01*
X0016790Y0372838D01*
X0016796Y0372719D01*
X0016798Y0372600D01*
X0016796Y0372481D01*
X0016790Y0372362D01*
X0016780Y0372243D01*
X0016766Y0372125D01*
X0016748Y0372007D01*
X0016727Y0371890D01*
X0016701Y0371774D01*
X0016671Y0371658D01*
X0016638Y0371544D01*
X0016601Y0371431D01*
X0016560Y0371319D01*
X0016515Y0371208D01*
X0016467Y0371099D01*
X0016415Y0370992D01*
X0016359Y0370887D01*
X0016300Y0370783D01*
X0016238Y0370682D01*
X0016172Y0370582D01*
X0016103Y0370485D01*
X0016031Y0370391D01*
X0015955Y0370298D01*
X0015877Y0370209D01*
X0015796Y0370122D01*
X0015711Y0370037D01*
X0015624Y0369956D01*
X0015535Y0369878D01*
X0015442Y0369802D01*
X0015348Y0369730D01*
X0015251Y0369661D01*
X0015151Y0369595D01*
X0015050Y0369533D01*
X0014946Y0369474D01*
X0014841Y0369418D01*
X0014734Y0369366D01*
X0014625Y0369318D01*
X0014514Y0369273D01*
X0014402Y0369232D01*
X0014289Y0369195D01*
X0014175Y0369162D01*
X0014059Y0369132D01*
X0013943Y0369106D01*
X0013826Y0369085D01*
X0013708Y0369067D01*
X0013590Y0369053D01*
X0013471Y0369043D01*
X0013352Y0369037D01*
X0013233Y0369035D01*
X0013114Y0369037D01*
X0012995Y0369043D01*
X0012876Y0369053D01*
X0012758Y0369067D01*
X0012640Y0369085D01*
X0012523Y0369106D01*
X0012407Y0369132D01*
X0012291Y0369162D01*
X0012177Y0369195D01*
X0012064Y0369232D01*
X0011952Y0369273D01*
X0011841Y0369318D01*
X0011732Y0369366D01*
X0011625Y0369418D01*
X0011520Y0369474D01*
X0011416Y0369533D01*
X0011315Y0369595D01*
X0011215Y0369661D01*
X0011118Y0369730D01*
X0011024Y0369802D01*
X0010931Y0369878D01*
X0010842Y0369956D01*
X0010755Y0370037D01*
X0010670Y0370122D01*
X0010589Y0370209D01*
X0010511Y0370298D01*
X0010435Y0370391D01*
X0010363Y0370485D01*
X0010294Y0370582D01*
X0010228Y0370682D01*
X0010166Y0370783D01*
X0010107Y0370887D01*
X0010051Y0370992D01*
X0009999Y0371099D01*
X0009951Y0371208D01*
X0009906Y0371319D01*
X0009865Y0371431D01*
X0009828Y0371544D01*
X0009795Y0371658D01*
X0009765Y0371774D01*
X0009739Y0371890D01*
X0009718Y0372007D01*
X0009700Y0372125D01*
X0009686Y0372243D01*
X0009676Y0372362D01*
X0009670Y0372481D01*
X0009668Y0372600D01*
D24*
X0013233Y0372600D03*
X0353233Y0008600D03*
D25*
X0258383Y0055600D03*
X0252083Y0055600D03*
X0245383Y0055600D03*
X0239083Y0055600D03*
X0221383Y0055600D03*
X0215083Y0055600D03*
X0205583Y0055600D03*
X0199283Y0055600D03*
X0193383Y0055600D03*
X0187083Y0055600D03*
X0175383Y0053600D03*
X0169083Y0053600D03*
X0169233Y0067450D03*
X0169233Y0073750D03*
X0187083Y0089600D03*
X0193383Y0089600D03*
X0050383Y0249600D03*
X0044083Y0249600D03*
X0226883Y0311800D03*
X0233183Y0311800D03*
D26*
X0230033Y0313375D03*
X0230033Y0310225D03*
X0047233Y0251175D03*
X0047233Y0248025D03*
X0190233Y0091175D03*
X0190233Y0088025D03*
X0170808Y0070600D03*
X0167658Y0070600D03*
X0172233Y0055175D03*
X0172233Y0052025D03*
X0190233Y0054025D03*
X0190233Y0057175D03*
X0202433Y0057175D03*
X0202433Y0054025D03*
X0218233Y0054025D03*
X0218233Y0057175D03*
X0242233Y0057175D03*
X0242233Y0054025D03*
X0255233Y0054025D03*
X0255233Y0057175D03*
D27*
X0255233Y0055600D03*
X0242233Y0055600D03*
X0218233Y0055600D03*
X0202433Y0055600D03*
X0190233Y0055600D03*
X0172233Y0053600D03*
X0169233Y0070600D03*
X0190233Y0089600D03*
X0167808Y0184600D03*
X0164658Y0184600D03*
X0159808Y0216600D03*
X0156658Y0216600D03*
X0230033Y0311800D03*
X0055233Y0283600D03*
X0047233Y0249600D03*
D28*
X0054792Y0179600D03*
X0021715Y0179600D03*
X0095715Y0179600D03*
X0128792Y0179600D03*
D29*
X0154233Y0181254D03*
X0154233Y0187946D03*
X0194233Y0231254D03*
X0194233Y0237946D03*
X0224233Y0196946D03*
X0224233Y0190254D03*
X0234233Y0190254D03*
X0234233Y0196946D03*
X0272233Y0196946D03*
X0272233Y0190254D03*
X0282233Y0194254D03*
X0282233Y0200946D03*
X0292233Y0200946D03*
X0292233Y0194254D03*
X0217233Y0158946D03*
X0217233Y0152254D03*
X0212233Y0141946D03*
X0212233Y0135254D03*
X0218233Y0090946D03*
X0218233Y0084254D03*
X0228233Y0084254D03*
X0228233Y0090946D03*
X0238233Y0090946D03*
X0238233Y0084254D03*
X0248233Y0084254D03*
X0248233Y0090946D03*
X0252233Y0074946D03*
X0252233Y0068254D03*
X0242233Y0068254D03*
X0242233Y0074946D03*
X0232233Y0074946D03*
X0232233Y0068254D03*
X0222233Y0068254D03*
X0222233Y0074946D03*
X0192233Y0075254D03*
X0192233Y0081946D03*
X0179233Y0081946D03*
X0179233Y0075254D03*
X0141233Y0074946D03*
X0141233Y0068254D03*
X0141233Y0058946D03*
X0141233Y0052254D03*
X0131233Y0052254D03*
X0131233Y0058946D03*
X0131233Y0068254D03*
X0131233Y0074946D03*
X0314233Y0098254D03*
X0314233Y0104946D03*
X0319233Y0068946D03*
X0319233Y0062254D03*
X0350233Y0064946D03*
X0350233Y0058254D03*
X0287233Y0302254D03*
X0287233Y0308946D03*
X0266233Y0310946D03*
X0266233Y0304254D03*
X0204233Y0336254D03*
X0204233Y0342946D03*
X0194233Y0342946D03*
X0194233Y0336254D03*
X0184233Y0336254D03*
X0184233Y0342946D03*
X0174233Y0342946D03*
X0174233Y0336254D03*
X0164233Y0336254D03*
X0164233Y0342946D03*
X0167233Y0363254D03*
X0167233Y0369946D03*
X0147233Y0371746D03*
X0147233Y0365054D03*
X0125233Y0365054D03*
X0125233Y0371746D03*
X0103233Y0371746D03*
X0103233Y0365054D03*
X0040233Y0308946D03*
X0040233Y0302254D03*
X0201233Y0363254D03*
X0201233Y0369946D03*
D30*
X0248887Y0359600D03*
X0255580Y0359600D03*
X0249580Y0308600D03*
X0242887Y0308600D03*
X0210580Y0308600D03*
X0203887Y0308600D03*
X0172580Y0306600D03*
X0165887Y0306600D03*
X0154580Y0311600D03*
X0147887Y0311600D03*
X0147887Y0321600D03*
X0154580Y0321600D03*
X0154580Y0331600D03*
X0147887Y0331600D03*
X0147887Y0341600D03*
X0154580Y0341600D03*
X0153580Y0301600D03*
X0146887Y0301600D03*
X0146887Y0291600D03*
X0153580Y0291600D03*
X0152887Y0241600D03*
X0159580Y0241600D03*
X0159580Y0231600D03*
X0152887Y0231600D03*
X0150887Y0203600D03*
X0157580Y0203600D03*
X0159887Y0171600D03*
X0166580Y0171600D03*
X0113580Y0236600D03*
X0106887Y0236600D03*
X0080580Y0314600D03*
X0073887Y0314600D03*
X0084887Y0328000D03*
X0091580Y0328000D03*
X0091580Y0337600D03*
X0084887Y0337600D03*
X0296787Y0303700D03*
X0303480Y0303700D03*
X0316887Y0288600D03*
X0323580Y0288600D03*
X0323580Y0279600D03*
X0316887Y0279600D03*
X0348887Y0264600D03*
X0355580Y0264600D03*
X0325580Y0195600D03*
X0318887Y0195600D03*
X0157580Y0069600D03*
X0150887Y0069600D03*
X0150887Y0059600D03*
X0157580Y0059600D03*
D31*
X0095776Y0089600D03*
X0088690Y0089600D03*
X0088690Y0099600D03*
X0095776Y0099600D03*
X0025776Y0089600D03*
X0018690Y0089600D03*
X0021776Y0097600D03*
X0014690Y0097600D03*
X0330690Y0055600D03*
X0337776Y0055600D03*
D32*
X0304233Y0064057D03*
X0304233Y0071143D03*
X0295233Y0071143D03*
X0295233Y0064057D03*
X0280233Y0064057D03*
X0280233Y0071143D03*
X0271233Y0071143D03*
X0271233Y0064057D03*
X0142233Y0100057D03*
X0142233Y0107143D03*
X0134233Y0101143D03*
X0134233Y0094057D03*
X0142233Y0116057D03*
X0142233Y0123143D03*
X0142233Y0148057D03*
X0142233Y0155143D03*
X0068233Y0155143D03*
X0068233Y0148057D03*
X0068233Y0123143D03*
X0068233Y0116057D03*
X0068233Y0107143D03*
X0068233Y0100057D03*
X0060233Y0101143D03*
X0060233Y0094057D03*
D33*
X0350379Y0275513D03*
X0356087Y0275513D03*
X0356087Y0289687D03*
X0350379Y0289687D03*
D34*
X0075320Y0368146D03*
X0075320Y0373854D03*
X0061146Y0373854D03*
X0061146Y0368146D03*
D35*
X0315233Y0118600D03*
X0315233Y0112600D03*
X0317233Y0090600D03*
X0317233Y0084600D03*
D36*
X0317233Y0087600D03*
X0315233Y0115600D03*
D37*
X0111233Y0097600D03*
X0037233Y0097600D03*
D38*
X0236737Y0229978D03*
X0236737Y0231946D03*
X0236737Y0233915D03*
X0236737Y0235883D03*
X0236737Y0237852D03*
X0236737Y0239820D03*
X0236737Y0241789D03*
X0236737Y0243757D03*
X0236737Y0245726D03*
X0236737Y0247694D03*
X0236737Y0249663D03*
X0236737Y0251631D03*
X0236737Y0253600D03*
X0236737Y0255569D03*
X0236737Y0257537D03*
X0236737Y0259506D03*
X0236737Y0261474D03*
X0236737Y0263443D03*
X0236737Y0265411D03*
X0236737Y0267380D03*
X0236737Y0269348D03*
X0236737Y0271317D03*
X0236737Y0273285D03*
X0236737Y0275254D03*
X0236737Y0277222D03*
X0299729Y0277222D03*
X0299729Y0275254D03*
X0299729Y0273285D03*
X0299729Y0271317D03*
X0299729Y0269348D03*
X0299729Y0267380D03*
X0299729Y0265411D03*
X0299729Y0263443D03*
X0299729Y0261474D03*
X0299729Y0259506D03*
X0299729Y0257537D03*
X0299729Y0255569D03*
X0299729Y0253600D03*
X0299729Y0251631D03*
X0299729Y0249663D03*
X0299729Y0247694D03*
X0299729Y0245726D03*
X0299729Y0243757D03*
X0299729Y0241789D03*
X0299729Y0239820D03*
X0299729Y0237852D03*
X0299729Y0235883D03*
X0299729Y0233915D03*
X0299729Y0231946D03*
X0299729Y0229978D03*
D39*
X0291855Y0222104D03*
X0289887Y0222104D03*
X0287918Y0222104D03*
X0285950Y0222104D03*
X0283981Y0222104D03*
X0282013Y0222104D03*
X0280044Y0222104D03*
X0278076Y0222104D03*
X0276107Y0222104D03*
X0274139Y0222104D03*
X0272170Y0222104D03*
X0270202Y0222104D03*
X0268233Y0222104D03*
X0266265Y0222104D03*
X0264296Y0222104D03*
X0262328Y0222104D03*
X0260359Y0222104D03*
X0258391Y0222104D03*
X0256422Y0222104D03*
X0254454Y0222104D03*
X0252485Y0222104D03*
X0250517Y0222104D03*
X0248548Y0222104D03*
X0246580Y0222104D03*
X0244611Y0222104D03*
X0244611Y0285096D03*
X0246580Y0285096D03*
X0248548Y0285096D03*
X0250517Y0285096D03*
X0252485Y0285096D03*
X0254454Y0285096D03*
X0256422Y0285096D03*
X0258391Y0285096D03*
X0260359Y0285096D03*
X0262328Y0285096D03*
X0264296Y0285096D03*
X0266265Y0285096D03*
X0268233Y0285096D03*
X0270202Y0285096D03*
X0272170Y0285096D03*
X0274139Y0285096D03*
X0276107Y0285096D03*
X0278076Y0285096D03*
X0280044Y0285096D03*
X0282013Y0285096D03*
X0283981Y0285096D03*
X0285950Y0285096D03*
X0287918Y0285096D03*
X0289887Y0285096D03*
X0291855Y0285096D03*
D40*
X0212533Y0283100D03*
X0212533Y0278100D03*
X0212533Y0273100D03*
X0212533Y0268100D03*
X0191933Y0268100D03*
X0191933Y0273100D03*
X0191933Y0278100D03*
X0191933Y0283100D03*
D41*
X0098202Y0263257D03*
X0096233Y0263257D03*
X0094265Y0263257D03*
X0094265Y0257943D03*
X0096233Y0257943D03*
X0098202Y0257943D03*
D42*
X0270394Y0092226D03*
X0272954Y0092226D03*
X0275513Y0092226D03*
X0278072Y0092226D03*
X0278072Y0082974D03*
X0275513Y0082974D03*
X0272954Y0082974D03*
X0270394Y0082974D03*
X0292394Y0082974D03*
X0294954Y0082974D03*
X0297513Y0082974D03*
X0300072Y0082974D03*
X0300072Y0092226D03*
X0297513Y0092226D03*
X0294954Y0092226D03*
X0292394Y0092226D03*
D43*
X0330902Y0310218D03*
X0330902Y0315139D03*
X0330902Y0320061D03*
X0330902Y0324982D03*
X0339564Y0324982D03*
X0339564Y0320061D03*
X0339564Y0315139D03*
X0339564Y0310218D03*
D44*
X0169186Y0188340D03*
X0167217Y0188340D03*
X0165249Y0188340D03*
X0163280Y0188340D03*
X0163280Y0180860D03*
X0165249Y0180860D03*
X0167217Y0180860D03*
X0169186Y0180860D03*
X0161186Y0212860D03*
X0159217Y0212860D03*
X0157249Y0212860D03*
X0155280Y0212860D03*
X0155280Y0220340D03*
X0157249Y0220340D03*
X0159217Y0220340D03*
X0161186Y0220340D03*
D45*
X0129060Y0315883D03*
X0127091Y0315883D03*
X0125123Y0315883D03*
X0123154Y0315883D03*
X0121186Y0315883D03*
X0119217Y0315883D03*
X0117249Y0315883D03*
X0115280Y0315883D03*
X0113312Y0315883D03*
X0111343Y0315883D03*
X0109375Y0315883D03*
X0107406Y0315883D03*
X0107406Y0351317D03*
X0109375Y0351317D03*
X0111343Y0351317D03*
X0113312Y0351317D03*
X0115280Y0351317D03*
X0117249Y0351317D03*
X0119217Y0351317D03*
X0121186Y0351317D03*
X0123154Y0351317D03*
X0125123Y0351317D03*
X0127091Y0351317D03*
X0129060Y0351317D03*
D46*
X0135950Y0344427D03*
X0135950Y0342458D03*
X0135950Y0340490D03*
X0135950Y0338521D03*
X0135950Y0336553D03*
X0135950Y0334584D03*
X0135950Y0332616D03*
X0135950Y0330647D03*
X0135950Y0328679D03*
X0135950Y0326710D03*
X0135950Y0324742D03*
X0135950Y0322773D03*
X0100517Y0322773D03*
X0100517Y0324742D03*
X0100517Y0326710D03*
X0100517Y0328679D03*
X0100517Y0330647D03*
X0100517Y0332616D03*
X0100517Y0334584D03*
X0100517Y0336553D03*
X0100517Y0338521D03*
X0100517Y0340490D03*
X0100517Y0342458D03*
X0100517Y0344427D03*
D47*
X0102690Y0143313D03*
X0105253Y0143313D03*
X0107839Y0143313D03*
X0110379Y0143330D03*
X0112965Y0143330D03*
X0115505Y0143330D03*
X0118091Y0143313D03*
X0120650Y0143313D03*
X0123209Y0143313D03*
X0125769Y0143313D03*
X0125765Y0119868D03*
X0123198Y0119868D03*
X0120631Y0119868D03*
X0118068Y0119887D03*
X0115509Y0119887D03*
X0112950Y0119887D03*
X0110391Y0119887D03*
X0107831Y0119887D03*
X0105272Y0119887D03*
X0102713Y0119887D03*
X0051765Y0119868D03*
X0049198Y0119868D03*
X0046631Y0119868D03*
X0044068Y0119887D03*
X0041509Y0119887D03*
X0038950Y0119887D03*
X0036391Y0119887D03*
X0033831Y0119887D03*
X0031272Y0119887D03*
X0028713Y0119887D03*
X0028690Y0143313D03*
X0031253Y0143313D03*
X0033839Y0143313D03*
X0036379Y0143330D03*
X0038965Y0143330D03*
X0041505Y0143330D03*
X0044091Y0143313D03*
X0046650Y0143313D03*
X0049209Y0143313D03*
X0051769Y0143313D03*
D48*
X0316887Y0247269D03*
X0323580Y0247269D03*
X0323580Y0255931D03*
X0316887Y0255931D03*
D49*
X0119564Y0296254D03*
X0119564Y0302946D03*
X0110902Y0302946D03*
X0110902Y0296254D03*
D50*
X0026312Y0021679D03*
X0341272Y0021679D03*
X0331430Y0359080D03*
X0041272Y0359080D03*
D51*
X0081139Y0078576D03*
X0081139Y0060624D03*
D52*
X0053981Y0069600D03*
D53*
X0079257Y0012694D03*
X0097209Y0012694D03*
D54*
X0088233Y0039852D03*
D55*
X0263233Y0113600D03*
X0269233Y0113600D03*
D56*
X0266233Y0113600D03*
D57*
X0272233Y0052600D03*
X0284233Y0052600D03*
X0300233Y0054600D03*
X0312233Y0054600D03*
D58*
X0081241Y0237600D03*
X0057225Y0237600D03*
D59*
X0162717Y0127017D03*
X0165276Y0127017D03*
X0167835Y0127017D03*
X0170394Y0127017D03*
X0172954Y0127017D03*
X0175513Y0127017D03*
X0178072Y0127017D03*
X0180631Y0127017D03*
X0183190Y0127017D03*
X0185749Y0127017D03*
X0185749Y0104183D03*
X0183190Y0104183D03*
X0180631Y0104183D03*
X0178072Y0104183D03*
X0175513Y0104183D03*
X0172954Y0104183D03*
X0170394Y0104183D03*
X0167835Y0104183D03*
X0165276Y0104183D03*
X0162717Y0104183D03*
X0226717Y0104183D03*
X0229276Y0104183D03*
X0231835Y0104183D03*
X0234394Y0104183D03*
X0236954Y0104183D03*
X0239513Y0104183D03*
X0242072Y0104183D03*
X0244631Y0104183D03*
X0247190Y0104183D03*
X0249749Y0104183D03*
X0249749Y0127017D03*
X0247190Y0127017D03*
X0244631Y0127017D03*
X0242072Y0127017D03*
X0239513Y0127017D03*
X0236954Y0127017D03*
X0234394Y0127017D03*
X0231835Y0127017D03*
X0229276Y0127017D03*
X0226717Y0127017D03*
D60*
X0230233Y0032600D03*
X0230233Y0022600D03*
X0230233Y0012600D03*
X0244233Y0012600D03*
X0244233Y0022600D03*
X0244233Y0032600D03*
X0256233Y0032600D03*
X0256233Y0022600D03*
X0256233Y0012600D03*
X0272233Y0012600D03*
X0272233Y0022600D03*
X0272233Y0032600D03*
X0284233Y0032600D03*
X0284233Y0022600D03*
X0284233Y0012600D03*
X0308233Y0012600D03*
X0308233Y0022600D03*
X0308233Y0032600D03*
X0320233Y0032600D03*
X0320233Y0022600D03*
X0320233Y0012600D03*
X0218233Y0012600D03*
X0218233Y0022600D03*
X0218233Y0032600D03*
X0202233Y0032600D03*
X0202233Y0022600D03*
X0202233Y0012600D03*
X0190233Y0012600D03*
X0190233Y0022600D03*
X0190233Y0032600D03*
X0170233Y0032600D03*
X0170233Y0022600D03*
X0170233Y0012600D03*
X0158233Y0012600D03*
X0158233Y0022600D03*
X0158233Y0032600D03*
X0146233Y0032600D03*
X0146233Y0022600D03*
X0146233Y0012600D03*
X0134233Y0012600D03*
X0134233Y0022600D03*
X0134233Y0032600D03*
X0122233Y0032600D03*
X0122233Y0022600D03*
X0122233Y0012600D03*
X0064233Y0012600D03*
X0064233Y0022600D03*
X0064233Y0032600D03*
X0048233Y0032600D03*
X0048233Y0022600D03*
X0048233Y0012600D03*
X0034233Y0254600D03*
X0034233Y0264600D03*
X0034233Y0274600D03*
X0014233Y0338100D03*
D61*
X0014233Y0327600D03*
X0034233Y0284600D03*
X0048233Y0042600D03*
X0064233Y0042600D03*
X0122233Y0042600D03*
X0134233Y0042600D03*
X0146233Y0042600D03*
X0158233Y0042600D03*
X0170233Y0042600D03*
X0190233Y0042600D03*
X0202233Y0042600D03*
X0218233Y0042600D03*
X0230233Y0042600D03*
X0244233Y0042600D03*
X0256233Y0042600D03*
X0272233Y0042600D03*
X0284233Y0042600D03*
X0308233Y0042600D03*
X0320233Y0042600D03*
D62*
X0310233Y0190679D03*
X0310233Y0200521D03*
D63*
X0027233Y0303088D03*
X0027233Y0314112D03*
X0016233Y0314112D03*
X0016233Y0303088D03*
D64*
X0064033Y0284700D03*
X0064033Y0275600D03*
X0064033Y0266500D03*
X0232033Y0328500D03*
X0232033Y0337600D03*
X0232033Y0346700D03*
D65*
X0256434Y0337600D03*
X0088434Y0275600D03*
D66*
X0109154Y0267600D03*
D67*
X0101674Y0267600D03*
D68*
X0023257Y0266482D03*
X0023257Y0269041D03*
X0023257Y0271600D03*
X0023257Y0274159D03*
X0023257Y0276718D03*
D69*
X0021288Y0281443D03*
X0021288Y0261757D03*
D70*
X0012233Y0259986D03*
X0012233Y0283214D03*
D71*
X0012233Y0274897D03*
X0012233Y0268303D03*
D72*
X0019233Y0173600D03*
X0019233Y0167600D03*
X0025233Y0167600D03*
X0025233Y0173600D03*
X0031233Y0173600D03*
X0031233Y0167600D03*
X0031233Y0161600D03*
X0025233Y0161600D03*
X0019233Y0161600D03*
X0031233Y0134600D03*
X0031233Y0128600D03*
X0037233Y0128600D03*
X0037233Y0134600D03*
X0043233Y0134600D03*
X0043233Y0128600D03*
X0049233Y0128600D03*
X0049233Y0134600D03*
X0062233Y0131600D03*
X0068233Y0131600D03*
X0084233Y0131600D03*
X0090233Y0131600D03*
X0096233Y0131600D03*
X0105233Y0128600D03*
X0105233Y0134600D03*
X0111233Y0134600D03*
X0111233Y0128600D03*
X0117233Y0128600D03*
X0117233Y0134600D03*
X0123233Y0134600D03*
X0123233Y0128600D03*
X0136233Y0131600D03*
X0142233Y0131600D03*
X0136233Y0107100D03*
X0140233Y0095100D03*
X0119233Y0079600D03*
X0119233Y0073600D03*
X0119233Y0064600D03*
X0119233Y0058600D03*
X0091233Y0058600D03*
X0091233Y0064600D03*
X0091233Y0074600D03*
X0091233Y0080600D03*
X0068233Y0096100D03*
X0062233Y0107100D03*
X0038233Y0078600D03*
X0038233Y0072600D03*
X0038233Y0062600D03*
X0038233Y0056600D03*
X0010233Y0056600D03*
X0010233Y0062600D03*
X0010233Y0072600D03*
X0010233Y0078600D03*
X0016233Y0131600D03*
X0022233Y0131600D03*
X0093233Y0161600D03*
X0099233Y0161600D03*
X0099233Y0167600D03*
X0093233Y0167600D03*
X0093233Y0173600D03*
X0099233Y0173600D03*
X0105233Y0173600D03*
X0105233Y0167600D03*
X0105233Y0161600D03*
M02*
